<?xml version="1.0" encoding="UTF-8"?>
<svg width="1440px" height="556px" viewBox="0 0 1440 556" version="1.1" xmlns="http://www.w3.org/2000/svg" xmlns:xlink="http://www.w3.org/1999/xlink">
    <title>onda-bianco-grigio@1x</title>
    <defs>
        <linearGradient x1="50%" y1="0%" x2="50%" y2="100%" id="linearGradient-1">
            <stop stop-color="#E2CA40" offset="0%"></stop>
            <stop stop-color="#FFED65" offset="100%"></stop>
        </linearGradient>
        <linearGradient x1="50%" y1="15%" x2="50%" y2="100%" id="linearGradient-2">
            <stop stop-color="#F07C79" offset="0%"></stop>
            <stop stop-color="#ED6562" offset="100%"></stop>
        </linearGradient>
                <linearGradient x1="50%" y1="15%" x2="50%" y2="100%" id="linearGradient-a">
            
            <stop stop-color="#ED6562" offset="0%"></stop>
            <stop stop-color="#F07C79" offset="100%"></stop>
        </linearGradient>
    
        <linearGradient x1="50%" y1="0%" x2="50%" y2="100%" id="linearGradient-4">
            <stop stop-color="#44E0DC" offset="0%"></stop>
            <stop stop-color="#28AFB0" offset="100%"></stop>
        </linearGradient>
    </defs>
    <g id="Mockup" stroke="none" stroke-width="0" fill="none" fill-rule="evenodd">

                <g id="onda-bianco-grigio" transform="translate(720.000000, 278.000000) scale(-1, 1) translate(-720.000000, -278.000000) ">
                    <path d="M568.617,516.780135 C702.816,479.389685 824.225,385.010358 945.406,287.736656 C839.086,310.295596 735.47,345.550607 633.405,379.769726 C492.145,427.130522 345.861,473.739822 195.064,482.810687 C317.142,533.943018 444.531,551.351441 568.617,516.780135" id="Fill-1" fill="url(#linearGradient-1)"></path>
                    <path d="M1146.551,263.70217 C1248.177,262.31492 1345.856,278.821381 1440,307.000422 L1440,0.826480487 C1353.767,22.0932446 1269.121,57.4673038 1188.116,107.24132 C1104.919,158.362077 1025.212,223.676936 945.406,287.736821 C1011.323,273.751055 1078.277,264.633893 1146.551,263.70217 Z" id="Fill-3" fill="url(#linearGradient-2)"></path>
                    <path d="M1146.551,327.646892 C1248.177,326.259641 1345.856,342.766103 1440,370.94597 L1440,64.7720289 C1353.767,86.0387929 1269.121,121.412025 1188.116,171.186869 C1104.919,222.307626 1025.212,287.622485 945.406,351.682369 C1011.323,337.696603 1078.277,328.578615 1146.551,327.646892 Z" id="Fill-6" fill="url(#linearGradient-a)"></path>
                    <path d="M1439.9998,555.111763 L1439.9998,307.000339 C1345.8558,278.821298 1248.1778,262.314837 1146.5508,263.702087 C1078.2768,264.63381 1011.3228,273.750972 945.4058,287.736738 C824.2248,385.010441 702.8158,479.389767 568.6168,516.780217 C444.5308,551.351523 317.1428,533.943101 195.0638,482.81077 C169.3558,484.356752 143.5208,484.845349 117.5528,484.025234 C78.2938,482.785141 38.6118,477.86776 -0.0002,469.462411 L-0.0002,555.111763 L1439.9998,555.111763 Z" id="Fill-9"  fill="#272727"></path>
                    <path d="M195.0637,482.810852 C127.9597,454.704563 62.4637,416.402232 -0.0003,370.945392 L-0.0003,469.462494 C38.6117,477.867843 78.2937,482.785224 117.5527,484.025317 C143.5207,484.845431 169.3557,484.356835 195.0637,482.810852" id="Fill-12" fill="url(#linearGradient-4)"></path>
                    <line x1="100%" y1="100%" x2="0" y2="100%" stroke="#272727" stroke-width="3"></line>
        </g>
    </g>
</svg>