<?xml version="1.0" encoding="UTF-8"?>
<svg width="219px" height="198px" viewBox="0 0 219 198" version="1.1" xmlns="http://www.w3.org/2000/svg" xmlns:xlink="http://www.w3.org/1999/xlink">
    <title>razzo@1x</title>
    <defs>
        <polygon id="path-1" points="0 0.126495238 217.908829 0.126495238 217.908829 12 0 12"></polygon>
        <linearGradient x1="100%" y1="50%" x2="0%" y2="50%" id="linearGradient-3">
            <stop stop-color="#E2CA40" offset="0%"></stop>
            <stop stop-color="#FFED65" offset="100%"></stop>
        </linearGradient>
    </defs>
    <g id="Mockup" stroke="none" stroke-width="1" fill="none" fill-rule="evenodd">
        <g id="Desktop-HD" transform="translate(-1024.000000, -3862.000000)">
            <g id="TAB" transform="translate(-1.000000, 3146.000000)">
                <g id="TAB-TURCHESE" transform="translate(937.000000, 563.493880)">
                    <g id="icona-turchese" transform="translate(80.000000, 133.000000)">
                        <g id="razzo" transform="translate(8.000000, 20.000000)">
                            <g id="Group-3" transform="translate(0.161473, 184.000000)">
                                <mask id="mask-2" fill="white">
                                    <use xlink:href="#path-1"></use>
                                </mask>
                                <g id="Clip-2"></g>
                                <path d="M217.908829,6.06230476 C217.908829,9.34135238 169.126997,12.0002095 108.955347,12.0002095 C48.7816243,12.0002095 -0.000207238334,9.34135238 -0.000207238334,6.06230476 C-0.000207238334,2.78325714 48.7816243,0.126495238 108.955347,0.126495238 C169.126997,0.126495238 217.908829,2.78325714 217.908829,6.06230476" id="Fill-1" fill="#272727" mask="url(#mask-2)"></path>
                            </g>
                            <path d="M103.0153,0 C103.0153,0 54.7919971,48.3805113 87.5899688,134.282491 C87.5899688,134.282491 108.977251,144.896887 132.315981,134.282491 C132.315981,134.282491 165.60854,43.9542485 103.0153,0" id="Fill-4" fill="#EAC428"></path>
                            <path d="M103.413391,0 C103.413391,0 87.961821,20.1945319 83.1614731,42 C83.1614731,42 103.664201,40.5418961 135.161473,42 C135.161473,42 127.688555,11.8858183 103.413391,0" id="Fill-6" fill="#EF6F6C"></path>
                            <path d="M74.0071334,97 C74.0071334,97 50.1721288,113.852419 70.1218163,151 L84.1614731,129.560717 L74.0071334,97 Z" id="Fill-8" fill="#F07C79"></path>
                            <path d="M80.120555,116.051335 L76.4694957,111 C76.4694957,111 63.402004,133.373717 70.044044,150 L84.1614731,128.798768 L80.120555,116.051335 Z" id="Fill-10" fill="#EF6F6C"></path>
                            <path d="M136.407021,96 C136.407021,96 162.28368,110.401703 145.499104,149 L129.161473,129.13814 L136.407021,96 Z" id="Fill-12" fill="#F07C79"></path>
                            <path d="M131.96673,116.339923 L135.106483,111 C135.106483,111 150.154725,131.924903 145.137277,149 L129.161473,129.33251 L131.96673,116.339923 Z" id="Fill-14" fill="#EF6F6C"></path>
                            <polygon id="Fill-16" fill="#EAE8E8" points="98.1622478 133 85.1614731 168 128.161473 168 115.160698 133"></polygon>
                            <path d="M102.820224,0 C102.820224,0 49.9506566,48.3805113 83.0664835,134.282491 C83.0664835,134.282491 104.661036,144.896887 128.225949,134.282491 C128.225949,134.282491 160.334657,50.356191 102.820224,0" id="Fill-18" fill="url(#linearGradient-3)"></path>
                            <path d="M76.7265303,111 C107.235681,108.303932 131.161473,82.776627 131.161473,51.6659313 C131.161473,46.8619529 130.575552,42.1937034 129.498613,37.7187646 C124.831877,25.842491 117.695607,14.2685225 107.151094,3.92022659 C105.760563,2.8837518 104.318455,1.91514143 102.839211,1 C97.7660432,6.09188805 61.9052065,44.9123932 76.7265303,111" id="Fill-20" fill="#E2CA40"></path>
                            <path d="M177.036806,184.303737 C175.243795,184.303737 173.581372,184.807137 172.11587,185.615878 C171.181017,179.275923 165.746016,174.392527 159.117055,174.392527 C157.114686,174.392527 155.234615,174.873233 153.534881,175.667533 C150.203818,168.211431 142.708408,163 133.981728,163 C129.037991,163 124.496386,164.683503 120.875124,167.487277 C116.126235,164.685566 110.139856,163 103.618684,163 C96.7119617,163 90.406365,164.883625 85.5372504,167.990678 C81.4330159,164.873309 76.325524,163 70.764079,163 C60.1365989,163 51.1259386,169.775273 47.7803656,179.211966 C44.7415738,177.421181 41.2032261,176.377245 37.4140641,176.377245 C28.5008275,176.377245 20.9453049,182.071445 18.1614731,190 L186.161473,190 C184.501124,186.637121 181.058127,184.303737 177.036806,184.303737" id="Fill-22" fill="#F3F3F3"></path>
                            <path d="M103.525038,0 C103.525038,0 83.961821,20.1945319 79.1614731,42 C79.1614731,42 103.097426,29.2632769 131.161473,42 C131.161473,42 126.912086,18.8458891 103.525038,0" id="Fill-24" fill="#F07C79"></path>
                            <path d="M127.161473,69.5 C127.161473,81.9258649 117.087799,92 104.662503,92 C92.2372064,92 82.1614731,81.9258649 82.1614731,69.5 C82.1614731,57.0720758 92.2372064,47 104.662503,47 C117.087799,47 127.161473,57.0720758 127.161473,69.5" id="Fill-26" fill="#FFED65"></path>
                            <path d="M123.161473,70.0010387 C123.161473,79.9416008 115.103074,88 105.164589,88 C95.2240272,88 87.1614731,79.9416008 87.1614731,70.0010387 C87.1614731,60.0604767 95.2240272,52 105.164589,52 C115.103074,52 123.161473,60.0604767 123.161473,70.0010387" id="Fill-28" fill="#272727"></path>
                            <path d="M176.652957,45 C176.652957,45 173.032519,41.7487388 173.165023,40.5642057 C173.28122,39.5737104 175.142403,36.3247055 178.161473,43.7410106 L176.652957,45 Z" id="Fill-30" fill="#F7A66F"></path>
                            <path d="M179.016261,81.8147469 L194.161473,66.5283019 L177.620101,43 L175.582124,44.2968682 L185.451101,64.3620132 L172.729373,78.6649134 C172.729373,78.6649134 168.065781,83.1448149 171.308207,86 C171.308207,86 175.848853,84.9002558 179.016261,81.8147469" id="Fill-32" fill="#44E0DC"></path>
                            <polygon id="Fill-34" fill="#3572E7" points="156.085059 185 154.602508 185.451128 154.874169 187.724812 154.568814 188.815539 151.161473 193 158.161473 188.985965"></polygon>
                            <polygon id="Fill-36" fill="#3572E7" points="156.267464 182 157.86356 182.129244 158.14548 184.491066 158.720161 185.525015 163.161473 189 155.161473 186.498511"></polygon>
                            <polygon id="Fill-38" fill="#586BA4" points="145.121179 119 144.161473 154.592053 153.788588 187 156.675721 185.609669 151.670823 156.776858 162.161473 120.084127"></polygon>
                            <polygon id="Fill-40" fill="#324376" points="155.161473 120.664023 158.717967 155.262094 155.161473 184 158.717967 184 165.762281 154.816705 172.161473 119"></polygon>
                            <polygon id="Fill-42" fill="#44E0DC" points="143.957548 125 172.876116 122.532109 170.525013 101.441561 176.161473 80.4327978 163.3294 76 143.161473 76 144.085415 105.101481"></polygon>
                            <path d="M157.093299,70.3831965 L156.161473,75.7635094 C156.161473,75.7635094 164.123137,79.6849521 163.064547,77.1426279 C162.086018,74.7812035 161.083027,70 161.083027,70 L157.093299,70.3831965 Z" id="Fill-44" fill="#F7A66F"></path>
                            <path d="M156.714826,63.4649333 C156.395055,64.6615778 155.747417,66.9944093 156.540773,68.4307998 C157.326034,69.8734444 158.55857,72.4626997 160.299097,72.921344 C162.049742,73.3779035 162.869409,71.7288689 163.0637,71.0096313 C163.3774,69.8484275 163.0637,63.5545774 160.210046,62.3391701 C158.050579,61.4218816 156.95769,62.5580685 156.714826,63.4649333" id="Fill-46" fill="#F7A66F"></path>
                            <path d="M161.161473,63.8290613 C161.161473,63.8290613 160.067773,65.2319409 158.091584,64.9614011 C156.113304,64.684316 156.567095,66.6435476 156.588007,66.8595431 C156.613102,67.0799021 157.242554,69.870389 156.581733,69.9969318 C155.91673,70.1169293 154.651551,66.6915466 155.381382,64.2130532 C156.100756,61.7301963 159.712268,60.9818483 161.161473,63.8290613" id="Fill-48" fill="#2E3B57"></path>
                            <path d="M157.161473,70.6126362 C157.161473,70.6126362 159.348818,72.0274238 161.350006,71.6310699 C162.621374,71.382238 163.035996,69.4324616 162.976764,69.0289983 C162.919648,68.625535 164.068321,72.5588578 161.254812,72.9605437 C158.437072,73.3586749 157.161473,70.6126362 157.161473,70.6126362" id="Fill-50" fill="#2E3B57"></path>
                            <path d="M112.161473,101.062885 C112.161473,101.062885 107.691128,99.5170972 106.8212,100.153829 C106.099035,100.688683 104.496537,103.666627 111.953356,102.863366 L112.161473,101.062885 Z" id="Fill-52" fill="#F7A66F"></path>
                            <path d="M146.765177,84.7038387 L141.262821,105 L112.161473,102.941204 L112.239476,100.586558 L134.866596,98.8053749 L140.76529,81.0279964 C140.76529,81.0279964 142.257884,74.8921361 146.432084,76.1768572 C146.432084,76.1768572 147.821377,80.5193765 146.765177,84.7038387" id="Fill-54" fill="#44E0DC"></path>
                        </g>
                    </g>
                </g>
            </g>
        </g>
    </g>
</svg>