<?xml version="1.0" encoding="UTF-8"?>
<svg width="219px" height="212px" viewBox="0 0 219 212" version="1.1" xmlns="http://www.w3.org/2000/svg" xmlns:xlink="http://www.w3.org/1999/xlink">
    <title>sveglia@1x</title>
    <defs>
        <polygon id="path-1" points="0.000849153933 0.0355512345 218.536133 0.0355512345 218.536133 12.0951704 0.000849153933 12.0951704"></polygon>
    </defs>
    <g id="Mockup" stroke="none" stroke-width="1" fill="none" fill-rule="evenodd">
        <g id="Desktop-HD" transform="translate(-140.000000, -3849.000000)">
            <g id="TAB" transform="translate(-1.000000, 3146.000000)">
                <g id="TAB-ROSA" transform="translate(44.000000, 563.493880)">
                    <g id="icona-rosa" transform="translate(97.000000, 132.000000)">
                        <g id="sveglia" transform="translate(0.000000, 8.000000)">
                            <g id="Group-3" transform="translate(0.000000, 197.234904)">
                                <mask id="mask-2" fill="white">
                                    <use xlink:href="#path-1"></use>
                                </mask>
                                <g id="Clip-2"></g>
                                <path d="M218.536982,6.06429681 C218.536982,9.39468396 169.612979,12.0951704 109.267854,12.0951704 C48.9227301,12.0951704 0.000849153933,9.39468396 0.000849153933,6.06429681 C0.000849153933,2.73390965 48.9227301,0.0355512345 109.267854,0.0355512345 C169.612979,0.0355512345 218.536982,2.73390965 218.536982,6.06429681" id="Fill-1" fill="#272727" mask="url(#mask-2)"></path>
                            </g>
                            <polygon id="Fill-4" fill="#272727" points="167.981754 84.9310697 163.20314 82.0262911 175.171965 62.2312359 179.952701 65.1338865"></polygon>
                            <path d="M147.924738,53.8776035 L199.616984,87.970979 C208.694439,73.6981952 204.688556,54.7160524 190.531037,45.3824562 C176.377763,36.04886 157.405542,39.8729531 147.924738,53.8776035 Z" id="Fill-6" fill="#E2CA40"></path>
                            <path d="M192.886165,83.5293278 C196.19362,73.4317642 194.242688,61.8998997 186.734045,53.3430391 C180.051203,45.7310296 170.479116,42.1920942 161.115071,42.9113728 C155.9416,45.1777385 151.317957,48.8613807 147.923464,53.8771779 L192.886165,83.5293278 Z" id="Fill-8" fill="#FFED65"></path>
                            <path d="M193.176363,39.5624716 C189.151374,36.9066741 183.755,37.994104 181.058937,41.9778003 L195.759914,51.6710358 C198.341342,47.612858 197.205599,42.2161411 193.176363,39.5624716" id="Fill-10" fill="#E2CA40"></path>
                            <path d="M74.3447005,179.63813 C77.7625451,182.706768 76.2468054,189.988931 70.962945,195.90489 C65.6769618,201.818721 58.6204926,204.129776 55.2047709,201.061138 C51.7911721,197.9925 53.304789,190.712465 58.5907722,184.796506 C63.8767554,178.880547 70.9311017,176.57162 74.3447005,179.63813" id="Fill-12" fill="#FFED65"></path>
                            <path d="M58.5909845,184.797357 C57.107088,186.459359 55.9288869,188.227762 55.0669957,189.98127 C55.1943688,191.624119 55.7781621,193.022243 56.8629562,193.994759 C60.2765551,197.063396 67.3309014,194.752342 72.6168846,188.836383 C74.102904,187.174381 75.2768593,185.405977 76.1429963,183.650342 C76.0113774,182.009621 75.429707,180.613625 74.3449128,179.638981 C70.9291911,176.572471 63.8769677,178.881398 58.5909845,184.797357" id="Fill-14" fill="#E2CA40"></path>
                            <path d="M176.904451,201.061989 C180.315927,197.993351 178.804433,190.713316 173.516327,184.797357 C168.230344,178.881398 161.180243,176.570343 157.758153,179.638981 C154.344554,182.707619 155.860294,189.989782 161.144154,195.903613 C166.430137,201.819572 173.488729,204.128499 176.904451,201.061989" id="Fill-16" fill="#FFED65"></path>
                            <path d="M161.144366,195.904039 C159.66047,194.242037 158.486515,192.473634 157.6225,190.717998 C157.749874,189.077277 158.333667,187.679153 159.418461,186.706637 C162.836306,183.635871 169.886406,185.949054 175.172389,191.862885 C176.660532,193.527015 177.832364,195.295418 178.696378,197.048926 C178.571128,198.689647 177.987335,200.089899 176.904663,201.062415 C173.486819,204.128925 166.43035,201.819998 161.144366,195.904039" id="Fill-18" fill="#E2CA40"></path>
                            <path d="M206.224675,132.1666 C206.224675,171.4524 169.641001,203.298562 124.519084,203.298562 C79.3971664,203.298562 42.8177379,171.4524 42.8177379,132.1666 C42.8177379,92.8807996 79.3971664,61.0346374 124.519084,61.0346374 C169.641001,61.0346374 206.224675,92.8807996 206.224675,132.1666" id="Fill-20" fill="#EF6F6C"></path>
                            <polygon id="Fill-22" fill="#E2CA40" points="71.1665297 82.4433875 66.829476 85.9759388 52.2771004 68.0046164 56.616277 64.4720651"></polygon>
                            <path d="M41.6327436,47.8284287 C28.0908613,58.0366506 25.2844075,77.2315976 35.2386145,90.9042733 L84.6912166,53.6167054 C74.3485217,40.2376996 55.1725031,37.6202069 41.6327436,47.8284287" id="Fill-24" fill="#E2CA40"></path>
                            <path d="M78.2525069,58.4726865 C69.8862178,51.948107 58.3950422,49.8988017 47.8273215,54.0995584 C38.4271875,57.8385298 31.8717191,65.6761118 29.3879439,74.7522148 C29.7743089,80.4000407 31.6742908,86.0053057 35.2386145,90.9040605 L78.2525069,58.4726865 Z" id="Fill-26" fill="#FFED65"></path>
                            <path d="M37.0594128,43.3697532 C33.2084997,46.2724037 32.4081721,51.7308338 35.2422234,55.6187682 L49.3042125,45.0147304 C46.364017,41.2097896 40.908203,40.4649746 37.0594128,43.3697532" id="Fill-28" fill="#E2CA40"></path>
                            <path d="M197.733136,132.1666 C197.733136,171.4524 161.149461,203.298562 116.027544,203.298562 C70.9056271,203.298562 34.3261986,171.4524 34.3261986,132.1666 C34.3261986,92.8807996 70.9056271,61.0346374 116.027544,61.0346374 C161.149461,61.0346374 197.733136,92.8807996 197.733136,132.1666" id="Fill-30" fill="#F07C79"></path>
                            <path d="M192.39684,129.843203 C192.39684,167.843665 157.010473,198.651342 113.359715,198.651342 C69.7110798,198.651342 34.3268354,167.843665 34.3268354,129.843203 C34.3268354,91.8406122 69.7110798,61.035063 113.359715,61.035063 C157.010473,61.035063 192.39684,91.8406122 192.39684,129.843203" id="Fill-32" fill="#F07C79"></path>
                            <path d="M192.39684,133.162098 C192.39684,169.332444 158.715149,198.650491 117.172416,198.650491 C75.6275599,198.650491 41.9522378,169.332444 41.9522378,133.162098 C41.9522378,96.9938809 75.6275599,67.6737057 117.172416,67.6737057 C158.715149,67.6737057 192.39684,96.9938809 192.39684,133.162098" id="Fill-34" fill="#F07C79"></path>
                            <path d="M178.678971,132.1666 C178.678971,162.291175 150.629293,186.710468 116.02627,186.710468 C81.4274935,186.710468 53.3799391,162.291175 53.3799391,132.1666 C53.3799391,102.042024 81.4274935,77.6227319 116.02627,77.6227319 C150.629293,77.6227319 178.678971,102.042024 178.678971,132.1666" id="Fill-38" fill="#FFFFFF"></path>
                            <path d="M120.753723,137.843154 C122.912697,142.252459 121.087016,147.578951 116.688398,149.74317 C112.289781,151.905262 106.9762,150.079401 104.819349,145.670096 C102.662498,141.260791 104.48181,135.936428 108.884674,133.772208 C113.283291,131.610117 118.598995,133.433849 120.753723,137.843154" id="Fill-40" fill="#EAE8E8"></path>
                            <path d="M117.542435,139.421524 C118.831026,142.053913 117.748355,145.237465 115.115977,146.529187 C112.492092,147.818781 109.316256,146.729223 108.027665,144.092578 C106.741197,141.460189 107.828114,138.278765 110.456245,136.987043 C113.080131,135.697449 116.25809,136.784879 117.542435,139.421524" id="Fill-42" fill="#F4BE4A"></path>
                            <polygon id="Fill-44" fill="#EAE8E8" points="111.213054 134.458928 108.434197 135.825131 87.2308238 98.7631358 88.5937158 92.2704769 94.5462849 95.1688713"></polygon>
                            <polygon id="Fill-46" fill="#EAE8E8" points="120.042556 141.430183 119.055415 138.489228 158.500738 122.303334 164.739896 124.51437 161.088535 130.047282"></polygon>
                            <path d="M122.534399,135.499966 C124.689127,139.911399 122.869814,145.237891 118.471197,147.397854 C114.07258,149.559946 108.758999,147.738341 106.600025,143.326908 C104.445297,138.915475 106.264609,133.591112 110.663227,131.42902 C115.061844,129.266929 120.377548,131.092789 122.534399,135.499966" id="Fill-48" fill="#28AFB0"></path>
                            <path d="M119.325234,137.078336 C120.611702,139.712853 119.524785,142.894277 116.898776,144.183871 C114.272768,145.475593 111.099055,144.388163 109.810464,141.74939 C108.521873,139.119129 109.606667,135.935577 112.234798,134.643855 C114.86293,133.354261 118.036642,134.443819 119.325234,137.078336" id="Fill-50" fill="#44E0DC"></path>
                            <polygon id="Fill-52" fill="#28AFB0" points="112.993942 132.11574 110.215086 133.484071 89.0117119 96.4220758 90.3767268 89.9294169 96.3292959 92.8278113"></polygon>
                            <polygon id="Fill-54" fill="#28AFB0" points="121.819199 139.088059 120.83418 136.144976 160.281626 119.959082 166.518662 122.172246 162.873668 127.705158"></polygon>
                            <polygon id="Fill-56" fill="#272727" points="117.272828 92.3781559 114.784807 92.3781559 115.464131 82.1848303 117.272828 82.1848303"></polygon>
                            <polygon id="Fill-58" fill="#272727" points="165.021179 136.067302 164.987213 133.575364 175.164322 134.130783 175.183428 135.943876"></polygon>
                            <polygon id="Fill-60" fill="#272727" points="69.9847197 131.011285 69.9528764 128.517219 56.9905416 129.35354 57.0160162 131.16876"></polygon>
                            <polygon id="Fill-62" fill="#272727" points="117.272828 172.704328 114.784807 172.704328 115.464131 184.274497 117.272828 184.274497"></polygon>
                            <path d="M147.7997,32.0468625 C147.7997,32.0468625 152.26625,30.0103254 153.200319,30.6380981 C153.990032,31.1679807 155.877277,34.2940758 148.169082,33.9982778 L147.7997,32.0468625 Z" id="Fill-64" fill="#F7A66F"></path>
                            <path d="M111.028575,20.7893027 L119.957429,41.1078564 L148.786205,34.2342778 L148.312801,31.7870284 L125.332573,33.5979929 L116.424948,15.9692855 C116.424948,15.9692855 111.801305,8.31258706 109.408814,12.0749669 C108.22849,13.9455166 109.264458,16.5800338 111.028575,20.7893027" id="Fill-66" fill="#F07C79"></path>
                            <path d="M109.133688,0.298590256 C109.133688,0.298590256 105.369813,0.611412564 104.505799,2.99269258 C103.646031,5.36971652 102.516656,6.61036553 99.4809307,8.18724533 C96.451574,9.76199709 91.6453628,12.6220868 91.7960876,15.5694262 C92.0317278,20.2596328 88.6075146,22.2982979 89.5628128,24.9370711 C90.5223567,27.5715882 93.8552859,26.7480356 94.9825377,25.5478194 C96.1055438,24.3476032 104.047256,18.8295879 105.380428,16.5972709 C106.715722,14.3606978 109.611337,16.2929608 111.069759,14.8309953 C112.530304,13.3647737 112.050532,10.7196164 112.744715,9.88116749 C115.281562,6.79976135 114.12459,3.77581238 112.43902,1.61797686 C110.761941,-0.544114737 109.133688,0.298590256 109.133688,0.298590256" id="Fill-68" fill="#272727"></path>
                            <path d="M90.1315336,43.2388786 L114.655099,45.2051902 L143.375608,49.3314654 C143.375608,49.3314654 149.680576,49.4974528 149.253876,65.6982435 L149.669962,94.8949922 L146.36463,94.8439192 C146.36463,94.8439192 140.437535,74.3998109 138.996097,59.8461254 C138.996097,59.8461254 113.578797,61.4059809 105.004465,57.594656 C96.4301329,53.7812031 88.2018313,44.3156683 90.1315336,43.2388786" id="Fill-70" fill="#28AFB0"></path>
                            <path d="M90.0858916,43.3914592 L134.87027,56.9385804 C134.87027,56.9385804 140.922615,58.4452348 135.868026,74.5864403 L128.168323,104.489699 L124.865114,103.489519 C124.865114,103.489519 124.862991,81.8686031 127.026211,66.5828709 C127.026211,66.5828709 103.069455,65.5082092 92.8074299,61.4159827 C83.7172371,57.7770293 86.9418991,47.8603493 90.0858916,43.3914592" id="Fill-72" fill="#44E0DC"></path>
                            <path d="M98.7039548,11.7961933 C98.7039548,11.7961933 95.7425305,13.915724 93.5665735,19.914677 C91.3927395,25.915758 92.8681444,34.493899 92.8681444,34.493899 L88.6244977,45.9555381 L114.655311,45.204339 L116.255967,34.5130514 L113.980234,29.8760459 L116.529819,25.7476426 L112.182151,11.4642186 L98.7039548,11.7961933 Z" id="Fill-74" fill="#EF6F6C"></path>
                            <polygon id="Fill-76" fill="#272727" points="124.404448 102.390598 129.321049 103.341833 128.648095 106.68286 129.289206 108.281021 135.587805 114.669405 133.813073 114.133139 127.015596 111.007044 126.302307 111.294329 123.703896 110.468649"></polygon>
                            <polygon id="Fill-78" fill="#272727" points="145.898657 93.6051854 150.607215 92.6560783 151.218606 95.8630389 152.36921 97.0483588 160.270587 100.410667 158.497978 100.583038 151.341733 100.28724 150.815258 100.804355 148.212601 101.023543"></polygon>
                            <path d="M106.635689,6.8563673 L103.672142,11.6721284 C103.672142,11.6721284 108.718239,18.2669334 108.87321,15.4536607 C109.017566,12.8446801 110.119343,7.91400462 110.119343,7.91400462 L106.635689,6.8563673 Z" id="Fill-80" fill="#F7A66F"></path>
                            <path d="M108.445449,0.832729027 C107.698193,1.77332399 106.224911,3.6034409 106.398988,5.195217 C106.581556,6.79124918 106.725912,9.58111344 108.150368,10.6749275 C109.581192,11.7666135 110.551351,10.0769474 111.07358,9.57472931 C111.59581,9.07889531 114.238801,3.40340487 112.077705,1.19449632 C110.443083,-0.471761278 109.018628,0.117706609 108.445449,0.832729027" id="Fill-82" fill="#F7A66F"></path>
                            <path d="M110.727975,2.23447089 C110.727975,2.23447089 108.297271,4.93282931 105.97059,4.93495735 C105.97059,4.93495735 107.125439,-0.131912825 110.330995,0.153244925 C110.330995,0.153244925 114.02906,1.02361448 112.999461,5.63082738 C112.999461,5.63082738 110.46686,3.84539938 110.727975,2.23447089" id="Fill-84" fill="#272727"></path>
                            <polygon id="Rectangle" fill="#EAE8E8" points="126.666753 34.3198614 146.899027 34.3204888 146.899027 50.4987588 121.75562 50.4987588"></polygon>
                            <rect id="Rectangle" fill="#F3F3F3" x="112" y="49.5061203" width="11" height="1"></rect>
                            <polygon id="Rectangle" fill="#F3F3F3" points="127.867653 34.3204888 151.607777 34.3204888 146.647058 50.5061203 123 50.4987588"></polygon>
                            <path d="M136.166462,43.5518593 C136.166462,44.7258904 137.117862,45.6792549 138.289473,45.6792549 C139.463221,45.6792549 140.414621,44.7258904 140.414621,43.5518593 C140.414621,42.3756859 139.463221,41.4244637 138.289473,41.4244637 C137.117862,41.4244637 136.166462,42.3756859 136.166462,43.5518593" id="Fill-166" fill="#FFFFFF"></path>
                            <path d="M114.820055,50.9079777 C114.820055,50.9079777 119.348288,52.8811211 119.512912,54.0101618 C119.656157,54.9570992 118.587169,58.4813347 113.618513,52.493348 L114.820055,50.9079777 Z" id="Fill-168" fill="#F7A66F"></path>
                            <path d="M92.2793746,20.1331544 L87.0541613,41.891291 L114.781572,52.9888834 L115.602554,51.2878239 L95.884002,39.0119157 L99.1529673,19.3897442 C99.1529673,19.3897442 100.779967,12.8704443 96.3522188,12.1313189 C96.3522188,12.1313189 93.3526385,15.6705511 92.2793746,20.1331544" id="Fill-170" fill="#F07C79"></path>
                        </g>
                    </g>
                </g>
            </g>
        </g>
    </g>
</svg>