<?xml version="1.0" encoding="UTF-8"?>
<svg width="219px" height="215px" viewBox="0 0 219 215" version="1.1" xmlns="http://www.w3.org/2000/svg" xmlns:xlink="http://www.w3.org/1999/xlink">
    <title>target@1x</title>
    <defs>
        <polygon id="path-1" points="0.000241242564 0.189647676 218.973463 0.189647676 218.973463 13.8432477 0.000241242564 13.8432477"></polygon>
    </defs>
    <g id="Mockup" stroke="none" stroke-width="1" fill="none" fill-rule="evenodd">
        <g id="Desktop-HD" transform="translate(-593.000000, -3844.000000)">
            <g id="TAB" transform="translate(-1.000000, 3146.000000)">
                <g id="TAB-GIALLA" transform="translate(490.000000, 563.493880)">
                    <g id="icona-gialla" transform="translate(97.000000, 133.000000)">
                        <g id="target" transform="translate(7.000000, 2.000000)">
                            <g id="Group-3" transform="translate(0.000000, 199.703683)">
                                <mask id="mask-2" fill="white">
                                    <use xlink:href="#path-1"></use>
                                </mask>
                                <g id="Clip-2"></g>
                                <path d="M218.973705,7.01524305 C218.973705,10.7858243 169.955628,13.8432477 109.488179,13.8432477 C49.0183179,13.8432477 0.000241242564,10.7858243 0.000241242564,7.01524305 C0.000241242564,3.24466177 49.0183179,0.189647676 109.488179,0.189647676 C169.955628,0.189647676 218.973705,3.24466177 218.973705,7.01524305" id="Fill-1" fill="#272727" mask="url(#mask-2)"></path>
                            </g>
                            <path d="M209.422911,134.934769 C196.960321,185.48947 145.826547,216.391371 95.2066193,203.944839 C44.586692,191.498306 13.6497455,140.415965 26.1123364,89.8636734 C38.5749273,39.3089724 89.718351,8.42152703 140.335866,20.8680592 C190.955793,33.3145914 221.885502,84.3800676 209.422911,134.934769" id="Fill-4" fill="#272727"></path>
                            <path d="M199.773209,134.934769 C187.310618,185.48947 136.176844,216.391371 85.5569167,203.944839 C34.9369894,191.498306 4.00004296,140.415965 16.4626338,89.8636734 C28.9252247,39.3089724 80.0686484,8.42152703 130.686163,20.8680592 C181.306091,33.3145914 212.2358,84.3800676 199.773209,134.934769" id="Fill-6" fill="#464646"></path>
                            <path d="M183.895588,131.031193 C173.589706,172.835254 131.314359,198.371606 89.4660112,188.081413 C47.6152512,177.79122 22.0411269,135.572756 32.3470093,93.7686945 C42.6480668,51.9766799 84.9282386,26.4330999 126.778999,36.7232933 C168.624934,47.0134867 194.199058,89.2391784 183.895588,131.031193" id="Fill-8" fill="#FFFFFF"></path>
                            <path d="M166.985208,126.872712 C158.978367,159.355125 126.138017,179.188623 93.6281692,171.196919 C61.1183212,163.202804 41.2495836,130.40718 49.2564243,97.9271759 C57.2584402,65.4616278 90.1036153,45.6160827 122.615876,53.6101969 C155.123311,61.6043111 174.987224,94.4071636 166.985208,126.872712" id="Fill-10" fill="#464646"></path>
                            <path d="M141.968113,120.722207 C137.362792,139.396824 118.483149,150.80735 99.7892631,146.212782 C81.0905519,141.613396 69.6628916,122.753261 74.2682122,104.076235 C78.8687079,85.4040274 97.7580007,74.0007295 116.456712,78.5977066 C135.150598,83.1946836 146.571021,102.049999 141.968113,120.722207" id="Fill-12" fill="#FFFFFF"></path>
                            <path d="M121.507125,115.69083 C119.685744,123.082615 112.216874,127.592857 104.825202,125.776231 C97.4287046,123.957197 92.9054065,116.497951 94.7267878,109.106166 C96.5481692,101.726428 104.021864,97.2089585 111.418361,99.0279929 C118.810033,100.844618 123.326094,108.311092 121.507125,115.69083" id="Fill-14" fill="#ED6562"></path>
                            <polygon id="Fill-16" fill="#EAE8E8" points="55.3844679 23.3990469 105.227594 115.521696 108.231064 113.902635 58.3903503 21.7799858"></polygon>
                            <path d="M105.067892,114.349563 C104.853186,115.219327 105.45388,116.110774 106.385076,116.339659 C107.328334,116.573363 108.264356,116.057769 108.479061,115.188006 C108.693767,114.313423 108.105135,113.424385 107.161877,113.193091 C106.230681,112.964206 105.28501,113.474981 105.067892,114.349563" id="Fill-18" fill="#EAE8E8"></path>
                            <polygon id="Fill-20" fill="#FFED65" points="58.1927726 -3.55271368e-14 53.9348414 10.3118772 42.2418143 7.47852032 62.4145175 50.4342351 74.8481593 56.1780471 77.8805783 41.9028432"></polygon>
                            <path d="M38.7778123,77.6580729 L59.5873959,75.0873315 L61.2302578,47.1272064 L58.8877925,46.8935027 L54.2583477,68.1894566 L35.8901388,71.4661279 C35.8901388,71.4661279 29.622657,72.0756851 30.3632716,76.2173012 C30.3632716,76.2173012 34.4957568,78.1086152 38.7778123,77.6580729" id="Fill-22" fill="#F7A66F"></path>
                            <path d="M59.0091375,47.4440316 C59.0091375,47.4440316 57.9983311,42.9217434 58.7606576,42.1724458 C59.4047753,41.543614 62.6639623,40.4088257 60.8835922,47.4777621 L59.0091375,47.4440316 Z" id="Fill-24" fill="#F7A66F"></path>
                            <polygon id="Fill-26" fill="#ED6562" points="36.596497 202.694403 38.0946134 202.819688 38.3623926 205.113357 38.8979511 206.118043 43.0400859 209.491087 35.5688037 207.062495"></polygon>
                            <polygon id="Fill-28" fill="#ED6562" points="31.2401884 198.68289 32.4174521 199.617705 31.3704594 201.668034 31.2619002 202.807641 32.8565135 207.903347 27.9617019 201.757179"></polygon>
                            <polygon id="Fill-30" fill="#44E0DC" points="29.3237574 120.184688 33.5334402 166.414665 35.0387938 204.544518 38.6453701 204.544518 42.2543589 164.918479 46.7631824 120.184688"></polygon>
                            <polygon id="Fill-32" fill="#28AFB0" points="62.3896695 120.184688 61.190694 162.364603 32.9339524 200.944998 29.3225512 199.140419 48.8631989 164.313741 41.9515995 122.584368 41.9515995 120.184688"></polygon>
                            <polygon id="Fill-34" fill="#272727" points="29.3237574 120.184688 62.3908757 120.184688 58.7842994 97.0696999 58.7842994 73.9402556 45.6124554 71.2948255 29.3237574 72.7934207 29.3237574 95.1181531"></polygon>
                            <path d="M43.3848215,57.4742597 C43.3848215,57.4742597 48.204848,56.6141335 48.8031295,61.8471703 C49.5799306,68.5980768 46.3448678,68.720952 48.8031295,73.9804912 C48.8031295,73.9804912 40.3331031,65.8683205 43.0157204,59.0812742 L43.3848215,57.4742597 Z" id="Fill-36" fill="#E2CA40"></path>
                            <path d="M41.803959,65.0609584 L40.3323794,70.5999784 C40.3323794,70.5999784 47.1788434,75.5198039 46.508189,72.7490893 C45.8785459,70.1735293 45.5094448,65.0609584 45.5094448,65.0609584 L41.803959,65.0609584 Z" id="Fill-38" fill="#F7A66F"></path>
                            <path d="M41.803959,58.6822913 C41.3552479,59.8170797 40.4530007,62.0240141 41.0947059,63.5153814 C41.7339987,65.0115674 42.7013814,67.6786814 44.4045539,68.3195598 C46.1149636,68.9604381 46.5612624,67.0378031 46.9303635,66.3969247 C47.2922274,65.760865 48.1944746,59.4749566 45.4491342,57.9691334 C43.379273,56.8319358 42.1489359,57.8197558 41.803959,58.6822913" id="Fill-40" fill="#F7A66F"></path>
                            <path d="M43.4391011,57.4742597 C43.4391011,57.4742597 40.7588962,56.9490286 38.9905882,58.6981928 C36.4285922,61.2472503 35.379187,67.1476679 43.8082022,74.3467074 C43.8082022,74.3467074 39.1039722,61.0785981 43.8082022,59.0812742 L43.4391011,57.4742597 Z" id="Fill-42" fill="#E2CA40"></path>
                            <path d="M44.4426702,59.3742472 C44.4426702,59.3742472 42.8673562,62.7039234 40.5972637,63.3905788 C40.5972637,63.3905788 38.7662327,57.8419215 43.4391011,57.2106804 C45.0264772,56.9962512 48.1746927,56.9528835 47.6487839,62.0052215 C47.6487839,62.0052215 44.6549636,61.0101735 44.4426702,59.3742472" id="Fill-44" fill="#E2CA40"></path>
                            <path d="M60.3060575,79.919217 L80.5656081,74.5199373 L78.3510013,46.6007706 L75.9988863,46.6899154 L74.3391375,68.4171371 L56.5981593,74.1850423 C56.5981593,74.1850423 50.4705981,75.6426791 51.773308,79.6445548 C51.773308,79.6445548 56.1277363,80.9552233 60.3060575,79.919217" id="Fill-46" fill="#F7A66F"></path>
                            <path d="M76.1928453,47.2110507 C76.1928453,47.2110507 74.5716953,42.8766892 75.2206378,42.0358375 C75.7754957,41.3202703 78.8465135,39.7469863 78.0576504,46.9966215 L76.1928453,47.2110507 Z" id="Fill-48" fill="#F7A66F"></path>
                            <path d="M50.1852082,79.2075047 C50.1852082,79.2075047 51.5265169,85.2524814 63.5717581,79.4990321 L59.6202049,72.683074 C59.6202049,72.683074 50.501236,74.0804779 50.1852082,79.2075047" id="Fill-50" fill="#272727"></path>
                        </g>
                    </g>
                </g>
            </g>
        </g>
    </g>
</svg>