<?xml version="1.0" encoding="UTF-8"?>
<svg width="47px" height="47px" viewBox="0 0 47 47" version="1.1" xmlns="http://www.w3.org/2000/svg" xmlns:xlink="http://www.w3.org/1999/xlink">
    <title>icon-2@1x</title>
    <g id="Mockup" stroke="none" stroke-width="1" fill="none" fill-rule="evenodd">
        <g id="Desktop-HD" transform="translate(-974.000000, -2117.000000)" fill="#272727">
            <g id="PERCORSO" transform="translate(0.000000, 1267.000000)">
                <g id="punto-2" transform="translate(512.000000, 804.000000)">
                    <path d="M485.0668,45.9999 C487.7918,45.9999 490.0098,48.2179 490.0098,50.9429 L490.010503,53.5526547 C494.836502,55.5115618 498.2477,60.2495509 498.2477,65.7711 L498.2477,75.6571 C498.2477,77.2061 498.9897,78.6821 500.2247,79.6081 L504.1787,82.5741 C504.7487,83.0021 504.9767,83.7401 504.7557,84.4161 C504.5287,85.0881 503.8987,85.5431 503.1907,85.5431 L491.6564,85.5429 L491.652807,85.7739759 C491.530706,89.302307 488.623481,92.1329 485.0668,92.1329 C481.432133,92.1329 478.476342,89.178442 478.4758,85.5439001 L466.9427,85.5431 C466.2347,85.5431 465.6047,85.0881 465.3807,84.4161 C465.1567,83.7431 465.3877,83.0021 465.9537,82.5771 L469.9087,79.6111 C471.1477,78.6821 471.8857,77.2061 471.8857,75.6571 L471.8857,65.7711 C471.8857,60.2491705 475.297368,55.510909 480.123894,53.5522499 L480.1238,50.9429 C480.1238,48.2179 482.3408,45.9999 485.0668,45.9999 Z M488.3618,85.5439062 L481.7714,85.5429 L481.777029,85.7298024 C481.874201,87.461938 483.313421,88.8379 485.0668,88.8379 C486.885465,88.8379 488.361256,87.3624443 488.3618,85.5439062 Z M485.0667,55.8861 C484.153268,55.8861 483.268365,56.0106357 482.42808,56.2436146 C482.309656,56.2952989 482.184218,56.3332882 482.053528,56.3558535 C478.071295,57.6328352 475.1807,61.3711949 475.1807,65.7711 L475.1807,75.6571 C475.1807,78.2341 473.9487,80.6991 471.8857,82.2471 L480.329721,82.2460232 C480.388514,82.2428419 480.447747,82.2428636 480.507184,82.2462056 L489.630965,82.2458102 C489.69019,82.2426706 489.749227,82.2428215 489.807839,82.2461518 L498.2477,82.2471 C496.1847,80.6991 494.9527,78.2341 494.9527,75.6571 L494.9527,65.7711 C494.9527,61.3706915 492.060792,57.6319797 488.078206,56.3551434 C487.948814,56.3330224 487.824725,56.2954549 487.70767,56.2446846 C486.866854,56.0109311 485.981047,55.8861 485.0667,55.8861 Z M501.3948,49.453 C505.7378,53.836 508.1328,59.632 508.1328,65.772 C508.1328,66.681 507.3948,67.419 506.4858,67.419 C505.5758,67.419 504.8378,66.681 504.8378,65.772 C504.8378,60.506 502.7848,55.536 499.0518,51.773 C498.4128,51.127 498.4188,50.083 499.0648,49.443 C499.7078,48.804 500.7588,48.811 501.3948,49.453 Z M471.0684,49.443 C471.7144,50.083 471.7174,51.127 471.0784,51.773 C467.3484,55.536 465.2954,60.506 465.2954,65.772 C465.2954,66.681 464.5574,67.419 463.6474,67.419 C462.7384,67.419 462.0004,66.681 462.0004,65.772 C462.0004,59.632 464.3924,53.836 468.7384,49.453 C469.3774,48.808 470.4224,48.804 471.0684,49.443 Z M485.0668,49.2949 C484.1568,49.2949 483.4188,50.0329 483.4188,50.9429 L483.418548,52.693562 C483.95856,52.6259408 484.508631,52.5911 485.0667,52.5911 C485.624898,52.5911 486.175095,52.6259569 486.715226,52.693609 L486.7148,50.9429 C486.7148,50.0329 485.9728,49.2949 485.0668,49.2949 Z" id="icon-2"></path>
                </g>
            </g>
        </g>
    </g>
</svg>