<?xml version="1.0" encoding="UTF-8"?>
<svg width="47px" height="47px" viewBox="0 0 47 47" version="1.1" xmlns="http://www.w3.org/2000/svg" xmlns:xlink="http://www.w3.org/1999/xlink">
    <title>icon-5@1x</title>
    <g id="Mockup" stroke="none" stroke-width="1" fill="none" fill-rule="evenodd">
        <g id="Desktop-HD" transform="translate(-417.000000, -2856.000000)" fill="#272727">
            <g id="PERCORSO" transform="translate(0.000000, 1267.000000)">
                <g id="punto-5" transform="translate(151.000000, 1566.000000)">
                    <path d="M300.6007,23.0002 C302.2677,23.0002 303.9757,23.3832 305.5437,24.1082 C306.0317,24.3322 306.3777,24.7832 306.4727,25.3112 C306.5647,25.8412 306.4007,26.3822 306.0177,26.7642 L298.9667,33.8492 L301.2667,36.1682 L308.3647,29.1132 C308.7437,28.7342 309.2737,28.5632 309.8177,28.6582 C310.3447,28.7542 310.7967,29.1042 311.0207,29.5912 C311.7517,31.1662 312.1347,32.8732 312.1347,34.5342 C312.1347,40.8942 306.9607,46.0672 300.6007,46.0672 C299.557127,46.0672 298.548652,45.9330344 297.585498,45.6672589 L311.6531,59.7331 C312.2951,60.3751 312.2951,61.4201 311.6531,62.0631 L305.0631,68.6531 C304.7401,68.9731 304.3181,69.1341 303.8961,69.1341 C303.4741,69.1341 303.0521,68.9731 302.7291,68.6531 L288.558353,54.4829827 L277.5147,66.9332 C276.2987,68.3262 274.4987,69.1342 272.5917,69.1342 C268.9567,69.1342 266.0007,66.1782 266.0007,62.5432 C266.0007,60.6362 266.8087,58.8362 268.2117,57.6102 L284.142353,43.4769827 L275.883353,35.2169827 L273.7543,37.3475 C273.4453,37.6575 273.0263,37.8295 272.5913,37.8295 C272.5223,37.8295 272.4563,37.8265 272.3903,37.8155 C271.8863,37.7575 271.4383,37.4635 271.1783,37.0285 L266.2353,28.7905 C265.8463,28.1445 265.9483,27.3135 266.4823,26.7765 L269.7773,23.4815 C270.3113,22.9475 271.1413,22.8465 271.7903,23.2345 L280.0293,28.1785 C280.4633,28.4375 280.7533,28.8865 280.8163,29.3895 C280.8793,29.8945 280.7043,30.3985 280.3453,30.7585 L278.214353,32.8879827 L286.611353,41.2849827 L289.7697,38.4842 C289.3047,37.2462 289.0677,35.9212 289.0677,34.5342 C289.0677,28.1742 294.2407,23.0002 300.6007,23.0002 Z M300.6007,26.2962 C296.0567,26.2962 292.3627,29.9932 292.3627,34.5342 C292.3627,35.8392 292.6557,37.0552 293.2297,38.1522 C293.5817,38.8242 293.4337,39.6492 292.8667,40.1492 L287.821785,44.6261415 C287.791651,44.6618855 287.759757,44.6966435 287.7261,44.7303 C287.644926,44.8114741 287.557082,44.8824174 287.464266,44.9430804 L270.3927,60.0852 C269.6817,60.7012 269.2957,61.5742 269.2957,62.5432 C269.2957,64.3622 270.7757,65.8392 272.5917,65.8392 C273.5597,65.8392 274.4337,65.4532 275.0397,64.7552 L287.090899,51.1696526 C287.152546,51.0748892 287.224946,50.9851247 287.3081,50.9021 L287.419353,50.8009827 L293.287616,44.1849673 C293.349541,44.0893798 293.422369,43.9988315 293.5061,43.9151 L293.620353,43.8109827 L294.9857,42.2722 C295.4897,41.7042 296.3077,41.5562 296.9827,41.9052 C298.0767,42.4822 299.2957,42.7722 300.6007,42.7722 C305.1447,42.7722 308.8387,39.0742 308.8387,34.5342 C308.8387,34.1512 308.8087,33.7662 308.7567,33.3812 L303.6097,38.5052 C303.0367,39.1082 302.2157,39.4642 301.3357,39.4772 C300.4327,39.4902 299.5797,39.1342 298.9397,38.5012 L296.6367,36.1922 C296.0037,35.5622 295.6477,34.6922 295.6577,33.8062 C295.6707,32.9192 296.0267,32.0992 296.6697,31.4922 L301.7577,26.3822 C301.3687,26.3252 300.9827,26.2962 300.6007,26.2962 Z M294.756353,47.4959827 L290.750353,52.0119827 L303.8961,65.1561 L308.1571,60.8961 L294.756353,47.4959827 Z M271.2003,26.7215 L269.7213,28.2005 L272.9173,33.5255 L276.5263,29.9175 L271.2003,26.7215 Z" id="icon-5"></path>
                </g>
            </g>
        </g>
    </g>
</svg>