<?xml version="1.0" encoding="UTF-8"?>
<svg width="47px" height="47px" viewBox="0 0 47 47" version="1.1" xmlns="http://www.w3.org/2000/svg" xmlns:xlink="http://www.w3.org/1999/xlink">
    <title>icon-1</title>
    <g id="Mockup" stroke="none" stroke-width="1" fill="none" fill-rule="evenodd">
        <g id="Desktop-HD" transform="translate(-419.000000, -1959.000000)" fill="#272727">
            <g id="PERCORSO" transform="translate(0.000000, 1267.000000)">
                <g id="punto-1" transform="translate(170.000000, 645.000000)">
                    <path d="M267.3256,56.6824 C267.7636,56.6824 268.1826,56.8574 268.4916,57.1624 L293.2066,81.8774 C294.4326,83.1134 295.1346,84.8104 295.1346,86.5404 C295.1346,90.1744 292.1786,93.1304 288.5436,93.1304 C286.8106,93.1304 285.1106,92.4254 283.8846,91.1934 L284.0886,90.9924 C282.60725,89.8688 279.832199,87.1378278 274.001737,81.3127811 L272.981971,80.2936124 C272.515404,79.8271911 272.030867,79.3426667 271.5276,78.8394 L259.1696,66.4824 C258.8606,66.1794 258.6856,65.7604 258.6856,65.3224 C258.6856,64.8834 258.8606,64.4654 259.1666,64.1564 L266.1586,57.1624 C266.4686,56.8534 266.8876,56.6824 267.3256,56.6824 Z M273.8868,67.22335 L269.231887,71.8885225 L269.231887,71.8885225 L270.388674,73.0449083 C270.796955,73.4530506 271.210726,73.8666844 271.627998,74.2838201 L273.52264,76.1778554 C273.840115,76.4952297 274.15788,76.8128953 274.475097,77.130013 L276.365102,79.01943 C277.196212,79.8502805 278.011486,80.6652985 278.79501,81.4485689 L279.944494,82.5976744 C280.224917,82.8780034 280.499756,83.1527488 280.768172,83.4210715 L281.805591,84.458118 C282.221918,84.87429 282.617294,85.2695125 282.987834,85.6399 L284.724692,87.3759361 C284.885818,87.5369716 285.035486,87.6865486 285.172856,87.823828 L285.547233,88.197934 C285.733792,88.384342 285.883858,88.5342585 285.993548,88.643798 L286.146543,88.7965227 C286.170478,88.820398 286.18758,88.83744 286.1976,88.8474 C286.2036,88.8534 286.2106,88.8604 286.2206,88.8694 C286.8296,89.4864 287.6766,89.8354 288.5436,89.8354 C290.3626,89.8354 291.8386,88.3594 291.8386,86.5404 C291.8386,85.6734 291.4866,84.8244 290.8696,84.2074 L273.8868,67.22335 Z M251.8121,70.549 L253.9418,72.67835 L256.0723,70.549 C256.7153,69.906 257.7593,69.906 258.4023,70.549 C259.0443,71.191 259.0443,72.236 258.4023,72.879 L256.2718,75.00835 L258.4021,77.139 C259.0451,77.782 259.0451,78.826 258.4021,79.469 C258.0821,79.789 257.6601,79.95 257.2391,79.95 C256.8171,79.95 256.3951,79.789 256.0721,79.469 L253.9418,77.33835 L251.8123,79.469 C251.4923,79.789 251.0703,79.95 250.6483,79.95 C250.2273,79.95 249.8053,79.789 249.4813,79.469 C248.8393,78.826 248.8393,77.782 249.4813,77.139 L251.6118,75.00835 L249.4821,72.879 C248.8391,72.236 248.8391,71.191 249.4821,70.549 C250.1241,69.906 251.1691,69.906 251.8121,70.549 Z M267.3256,60.6604 L262.6626,65.3224 L262.811422,65.4711026 L262.811422,65.4711026 L263.862475,66.5214495 C263.927961,66.586897 263.994568,66.6534648 264.062263,66.7211218 L264.70009,67.3586049 C264.847991,67.5064302 264.999876,67.6582393 265.155495,67.8137838 L265.63331,68.291374 C266.04011,68.6979881 266.468667,69.1263609 266.915103,69.5726156 L271.5558,64.89235 L267.3256,60.6604 Z M278.1739,47.4826 L280.3038,49.61235 L282.4346,47.4826 C283.0766,46.8396 284.1216,46.8396 284.7636,47.4826 C285.4066,48.1246 285.4066,49.1686 284.7636,49.8116 L282.6328,51.94135 L284.7639,54.0716 C285.4069,54.7146 285.4069,55.7596 284.7639,56.4026 C284.4439,56.7216 284.0229,56.8836 283.6009,56.8836 C283.1789,56.8836 282.7569,56.7216 282.4339,56.4026 L280.3038,54.27135 L278.1736,56.4026 C277.8536,56.7216 277.4316,56.8836 277.0106,56.8836 C276.5886,56.8836 276.1666,56.7216 275.8436,56.4026 C275.2016,55.7596 275.2016,54.7146 275.8436,54.0716 L277.9738,51.94135 L275.8439,49.8116 C275.2019,49.1686 275.2019,48.1246 275.8439,47.4826 C276.4859,46.8396 277.5309,46.8396 278.1739,47.4826 Z M251.8121,47.4826 L253.9418,49.61235 L256.0723,47.4826 C256.7153,46.8396 257.7593,46.8396 258.4023,47.4826 C259.0443,48.1246 259.0443,49.1686 258.4023,49.8116 L256.2718,51.94135 L258.4021,54.0716 C259.0451,54.7146 259.0451,55.7596 258.4021,56.4026 C258.0821,56.7216 257.6601,56.8836 257.2391,56.8836 C256.8171,56.8836 256.3951,56.7216 256.0721,56.4026 L253.9418,54.27235 L251.8123,56.4026 C251.4923,56.7216 251.0703,56.8836 250.6483,56.8836 C250.2273,56.8836 249.8053,56.7216 249.4813,56.4026 C248.8393,55.7596 248.8393,54.7146 249.4813,54.0716 L251.6118,51.94135 L249.4821,49.8116 C248.8391,49.1686 248.8391,48.1246 249.4821,47.4826 C250.1241,46.8396 251.1691,46.8396 251.8121,47.4826 Z" id="icon-1"></path>
                </g>
            </g>
        </g>
    </g>
</svg>