<?xml version="1.0" encoding="UTF-8"?>
<svg width="47px" height="43px" viewBox="0 0 47 43" version="1.1" xmlns="http://www.w3.org/2000/svg" xmlns:xlink="http://www.w3.org/1999/xlink">
    <title>icon-4@1x</title>
    <g id="Mockup" stroke="none" stroke-width="1" fill="none" fill-rule="evenodd">
        <g id="Desktop-HD" transform="translate(-974.000000, -2695.000000)" fill="#272727">
            <g id="PERCORSO" transform="translate(0.000000, 1267.000000)">
                <g id="punto-4" transform="translate(951.000000, 1402.000000)">
                    <path d="M24.6478,68.8367 C23.7378,68.8367 22.9998,68.0987 22.9998,67.1887 L22.9998,44.1217 C22.9998,43.2127 23.7378,42.4747 24.6478,42.4747 L36.9718,42.4747 L48.0138,26.6997 C48.5248,25.9657 49.5398,25.7837 50.2778,26.2757 L53.2898,28.2817 C55.0168,29.4417 55.8398,31.5767 55.3428,33.5907 L53.1218,42.4747 L64.1908,42.4747 C66.9158,42.4747 69.1328,44.6927 69.1328,47.4167 L69.1328,54.0077 C69.1328,54.3637 69.0178,54.7127 68.8038,54.9957 L60.8948,65.5407 C59.3238,67.6077 56.8618,68.8367 54.3048,68.8367 L24.6478,68.8367 Z M32.8858,45.7690942 L26.2958,45.7697 L26.2958,65.5407 L32.8858,65.5400942 L32.8858,45.7690942 Z M49.7908,29.9097 L39.1798,45.0687 C38.8698,45.5057 38.3658,45.7697 37.8288,45.7697 L36.1808,45.7690942 L36.1808,65.5400942 L54.3048,65.5407 C55.8398,65.5407 57.3198,64.7967 58.2618,63.5537 L65.8388,53.4577 L65.8388,47.4167 C65.8388,46.5107 65.0968,45.7697 64.1908,45.7697 L51.0098,45.7697 C50.5018,45.7697 50.0208,45.5357 49.7078,45.1367 C49.3988,44.7377 49.2898,44.2147 49.4118,43.7237 L52.1428,32.7967 C52.3108,32.1237 52.0338,31.4087 51.4578,31.0207 L49.7908,29.9097 Z" id="icon-4"></path>
                </g>
            </g>
        </g>
    </g>
</svg>