<?xml version="1.0" encoding="UTF-8"?>
<svg width="47px" height="43px" viewBox="0 0 47 43" version="1.1" xmlns="http://www.w3.org/2000/svg" xmlns:xlink="http://www.w3.org/1999/xlink">
    <title>icon-6@1x</title>
    <g id="Mockup" stroke="none" stroke-width="1" fill="none" fill-rule="evenodd">
        <g id="Desktop-HD" transform="translate(-977.000000, -3015.000000)" fill="#272727">
            <g id="PERCORSO" transform="translate(0.000000, 1267.000000)">
                <g id="punto-6" transform="translate(954.000000, 1723.000000)">
                    <path d="M36.4283,28.2956 C30.7473,28.2956 26.2953,32.7176 26.2953,38.3586 C26.2953,45.3126 35.5183,54.4166 46.0663,63.9696 C56.6153,54.4126 65.8383,45.3086 65.8383,38.3586 C65.8383,32.7176 61.3863,28.2956 55.7053,28.2956 C52.5353,28.2956 49.4013,29.7386 47.3153,32.1536 C46.6863,32.8786 45.4443,32.8786 44.8213,32.1536 C42.7353,29.7386 39.5983,28.2956 36.4283,28.2956 M46.0663,67.8376 C45.6713,67.8376 45.2763,67.6956 44.9633,67.4126 C32.9483,56.5816 23.0003,46.9166 23.0003,38.3586 C23.0003,30.8686 28.8983,24.9996 36.4283,24.9996 C39.9503,24.9996 43.4403,26.3706 46.0663,28.7306 C48.6933,26.3706 52.1823,24.9996 55.7053,24.9996 C63.2353,24.9996 69.1333,30.8686 69.1333,38.3586 C69.1333,46.9136 59.1853,56.5776 47.1703,67.4126 C46.8543,67.6956 46.4623,67.8376 46.0663,67.8376" id="icon-6"></path>
                </g>
            </g>
        </g>
    </g>
</svg>