<?xml version="1.0" encoding="UTF-8"?>
<svg width="47px" height="43px" viewBox="0 0 47 43" version="1.1" xmlns="http://www.w3.org/2000/svg" xmlns:xlink="http://www.w3.org/1999/xlink">
    <title>icon-3@1x</title>
    <g id="Mockup" stroke="none" stroke-width="1" fill="none" fill-rule="evenodd">
        <g id="Desktop-HD" transform="translate(-419.000000, -2541.000000)" fill="#272727">
            <g id="PERCORSO" transform="translate(0.000000, 1267.000000)">
                <g id="punto-3" transform="translate(151.000000, 1249.000000)">
                    <path d="M289.4191,24.9998 C298.669768,24.9998 306.570024,30.895354 309.559698,39.126293 L310.9006,34.4343 C311.1476,33.5573 312.0536,33.0533 312.9376,33.3003 C313.8136,33.5503 314.3176,34.4633 314.0676,35.3373 L310.793495,46.8011578 C310.633703,47.4734591 310.061894,47.986346 309.359712,48.0581735 C309.347419,48.0591468 309.334756,48.0602786 309.322069,48.0612639 C309.278115,48.0650581 309.234311,48.0668 309.1901,48.0668 C309.137058,48.0668 309.084598,48.0642871 309.032832,48.0593738 L309.1906,48.0663 C309.133359,48.0663 309.076339,48.0634107 309.019733,48.0576322 C308.970099,48.0529646 308.921194,48.0456587 308.873037,48.0362512 C308.87054,48.035501 308.867862,48.0349751 308.865185,48.0344425 C308.8197,48.025575 308.775073,48.0146295 308.731198,48.0019062 C308.719776,47.998555 308.708083,47.9950394 308.696427,47.9913905 C308.659648,47.9798395 308.62357,47.9670782 308.588093,47.95312 C308.573323,47.9473966 308.55866,47.9413829 308.544071,47.9351467 C308.505668,47.9186415 308.468034,47.9008185 308.431213,47.8816442 C308.427059,47.8794779 308.422494,47.8770672 308.417938,47.8746333 L308.397956,47.8638375 C308.358774,47.8422763 308.320561,47.8191659 308.283402,47.7945889 L308.2776,47.7903 L298.3916,41.1993 C297.6376,40.6953 297.4296,39.6733 297.9336,38.9163 C298.4416,38.1583 299.4666,37.9573 300.2176,38.4583 L307.246458,43.1430516 C305.699925,34.7073281 298.29226,28.2948 289.4191,28.2948 C284.5591,28.2948 280.0111,30.1808 276.6171,33.6078 C273.1801,37.0118 271.2951,41.5588 271.2951,46.4188 C271.2951,56.4098 279.4241,64.5428 289.4191,64.5428 C294.2831,64.5428 298.8271,62.6578 302.2211,59.2338 C302.8601,58.5918 303.9081,58.5818 304.5511,59.2208 C305.1961,59.8598 305.2031,60.9078 304.5641,61.5508 C300.5441,65.6048 295.1661,67.8378 289.4191,67.8378 C277.6091,67.8378 268.0001,58.2298 268.0001,46.4188 C268.0001,40.6718 270.2341,35.2948 274.2871,31.2768 C278.2941,27.2338 283.6721,24.9998 289.4191,24.9998 Z M289.4195,34.8853 C292.1445,34.8853 294.3615,37.1033 294.3615,39.8293 L294.3611,44.7708 L296.009,44.7711 C296.919,44.7711 297.657,45.5101 297.657,46.4191 L297.657,56.3041 C297.657,57.2151 296.919,57.9521 296.009,57.9521 L282.829,57.9521 C281.919,57.9521 281.181,57.2151 281.181,56.3041 L281.181,46.4191 C281.181,45.5101 281.919,44.7711 282.829,44.7711 L284.4761,44.7708 L284.4765,39.8293 C284.4765,37.1033 286.6935,34.8853 289.4195,34.8853 Z M294.362,48.0661 L284.476,48.0661 L284.476,54.6571 L294.362,54.6571 L294.362,48.0661 Z M289.4195,38.1803 C288.5095,38.1803 287.7715,38.9193 287.7715,39.8293 L287.7711,44.7708 L291.0661,44.7708 L291.0665,39.8293 C291.0665,38.9193 290.3285,38.1803 289.4195,38.1803 Z" id="icon-3"></path>
                </g>
            </g>
        </g>
    </g>
</svg>