<?xml version="1.0" encoding="UTF-8"?>
<svg width="67.86px" height="58.76px"  viewBox="0 0 67.86 58.76"  version="1.1" xmlns="http://www.w3.org/2000/svg" xmlns:xlink="http://www.w3.org/1999/xlink">
    <title>LOGO BIANCO@1x</title>
    <defs>
        <linearGradient x1="50%" y1="0%" x2="50%" y2="100%" id="linearGradient-1">
            <stop stop-color="#E2CA40" offset="0%"></stop>
            <stop stop-color="#FFED65" offset="100%"></stop>
        </linearGradient>
        <linearGradient x1="100%" y1="50%" x2="0%" y2="50%" id="linearGradient-2">
            <stop stop-color="#EF6F6C" offset="0%"></stop>
            <stop stop-color="#F07C79" offset="100%"></stop>
        </linearGradient>
        <linearGradient x1="27.9814162%" y1="95.5934994%" x2="78.7670418%" y2="11.9920162%" id="linearGradient-3">
            <stop stop-color="#28AFB0" offset="0%"></stop>
            <stop stop-color="#44E0DC" offset="100%"></stop>
        </linearGradient>
    </defs>
    <g id="Mockup" stroke="none" stroke-width="1" fill="none" fill-rule="evenodd">

                <!-- <path d="M71.8843333,17.9040667 C72.7256667,17.9040667 73.399,18.5774 73.399,19.4207333 L73.399,37.0947333 C73.399,38.2734 74.3256667,39.2400667 75.5043333,39.2400667 L86.151,39.2400667 C86.951,39.2400667 87.6243333,39.8720667 87.6243333,40.7134 C87.6243333,41.5547333 86.951,42.1867333 86.151,42.1867333 L71.8843333,42.1867333 C71.0843333,42.1867333 70.413,41.5547333 70.413,40.7134 L70.413,19.4207333 C70.413,18.5774 71.0843333,17.9040667 71.8843333,17.9040667 Z M100.343733,17.9044 C102.9944,17.9044 105.141067,18.6204 106.655733,20.0937333 C108.213067,21.6497333 109.013067,23.9644 109.013067,26.9517333 L109.013067,33.8124 C109.013067,37.8090667 106.0664,42.1030667 100.6384,42.1030667 L100.5544,42.1030667 C97.6504,42.1030667 95.4197333,41.3457333 93.9050667,39.7884 C92.5584,38.3984 91.8424,36.4217333 91.7584,33.8964 L91.7584,26.9110667 C91.6744,23.9230667 92.3477333,21.7337333 93.8210667,20.2190667 C95.2517333,18.7044 97.4397333,17.9044 100.343733,17.9044 Z M154.6582,17.9044 C157.308867,17.9044 159.455533,18.6204 160.9702,20.0937333 C162.527533,21.6497333 163.327533,23.9644 163.327533,26.9517333 L163.327533,33.8124 C163.327533,37.8090667 160.380867,42.1030667 154.952867,42.1030667 L154.868867,42.1030667 C151.964867,42.1030667 149.7342,41.3457333 148.219533,39.7884 C146.872867,38.3984 146.156867,36.4217333 146.072867,33.8964 L146.072867,26.9110667 C145.989533,23.9230667 146.6622,21.7337333 148.135533,20.2190667 C149.5662,18.7044 151.7542,17.9044 154.6582,17.9044 Z M132.383867,17.9041333 C135.582533,17.9474667 137.518533,19.2508 138.611867,20.3868 C139.874533,21.7334667 140.590533,23.5014667 140.506533,25.1428 C140.463867,25.9841333 139.7492,26.5734667 138.9492,26.5734667 C138.107867,26.5321333 137.475867,25.8161333 137.518533,25.0161333 C137.559867,24.3428 137.2652,23.3334667 136.423867,22.4494667 C135.750533,21.7334667 134.530533,20.8921333 132.383867,20.8921333 C130.195867,20.8921333 128.595867,21.3974667 127.586533,22.4494667 C126.618533,23.4174667 126.156533,24.9321333 126.239867,26.9108 C126.239867,26.9108 126.1972,26.9108 126.1972,26.9521333 L126.239867,26.9521333 L126.239867,33.1388 C126.156533,35.1154667 126.618533,36.6321333 127.586533,37.6001333 C128.595867,38.6094667 130.1532,39.1561333 132.383867,39.1561333 C134.530533,39.1148 135.750533,38.2734667 136.423867,37.6001333 C137.2652,36.7161333 137.559867,35.7054667 137.518533,35.0321333 L137.518533,32.9281333 C137.518533,32.1281333 136.886533,31.4974667 136.087867,31.4974667 L132.131867,31.4974667 C131.331867,31.4974667 130.658533,30.8241333 130.658533,30.0241333 C130.658533,29.1828 131.331867,28.5094667 132.131867,28.5094667 L138.990533,28.5094667 C139.8332,28.5094667 140.506533,29.1828 140.506533,30.0241333 L140.506533,34.9908 C140.547867,36.5888 139.8332,38.3574667 138.611867,39.6614667 C137.518533,40.7554667 135.582533,42.1028 132.383867,42.1028 L132.342533,42.1028 C129.354533,42.1028 127.039867,41.3028 125.439867,39.7041333 C124.0932,38.3141333 123.335867,36.2948 123.251867,33.9388 L123.251867,26.9521333 C123.168533,24.1748 123.9252,21.9034667 125.439867,20.3454667 C127.039867,18.7474667 129.354533,17.9041333 132.342533,17.9041333 L132.383867,17.9041333 Z M100.385067,20.8924 C98.3237333,20.8924 96.8090667,21.3544 95.9664,22.2817333 C95.0410667,23.2070667 94.6624,24.6804 94.7037333,26.9110667 L94.7037333,33.1384 C94.6624,35.2430667 95.1250667,36.7570667 96.0504,37.6844 C96.9770667,38.6524 98.5344,39.1144 100.595733,39.1144 C104.341067,39.1144 106.025067,36.3790667 106.025067,33.8124 L106.025067,26.9517333 C106.025067,24.7644 105.519733,23.1657333 104.551733,22.1977333 C103.667733,21.3137333 102.237067,20.8510667 100.385067,20.8924 Z M154.699533,20.8924 C152.6382,20.8924 151.123533,21.3544 150.280867,22.2817333 C149.355533,23.2070667 148.977533,24.6804 149.0182,26.9110667 L149.0182,33.1384 C148.977533,35.2430667 149.439533,36.7570667 150.364867,37.6844 C151.291533,38.6524 152.848867,39.1144 154.9102,39.1144 C158.655533,39.1144 160.339533,36.3790667 160.339533,33.8124 L160.339533,26.9517333 C160.339533,24.7644 159.8342,23.1657333 158.8662,22.1977333 C157.9822,21.3137333 156.551533,20.8510667 154.699533,20.8924 Z M116.1292,32.4455333 C117.501867,32.4455333 118.6152,33.5582 118.6152,34.9315333 C118.6152,36.3042 117.501867,37.4168667 116.1292,37.4168667 C114.756533,37.4168667 113.643867,36.3042 113.643867,34.9315333 C113.643867,33.5582 114.756533,32.4455333 116.1292,32.4455333 Z M116.1292,22.5904 C117.501867,22.5904 118.6152,23.7030667 118.6152,25.0757333 C118.6152,26.4484 117.501867,27.5610667 116.1292,27.5610667 C114.756533,27.5610667 113.643867,26.4484 113.643867,25.0757333 C113.643867,23.7030667 114.756533,22.5904 116.1292,22.5904 Z" id="Combined-Shape" fill="#FFFFFF"></path> -->
                <path d="M22.8314,13.8482 L18.5334,21.2928667 C16.4840667,24.8428667 16.4840667,29.2168667 18.5334,32.7675333 L33.9234,59.4242 L38.2214,51.9802 C40.2714,48.4295333 40.2714,44.0555333 38.2214,40.5048667 L22.8314,13.8482 Z" id="Fill-14" fill="url(#linearGradient-1)"></path>
                <path d="M4.29786667,8.11053333 L-0.000133333333,0.666533333 L30.7805333,0.666533333 C34.8805333,0.666533333 38.6685333,2.85386667 40.7185333,6.40386667 L45.0165333,13.8478667 L14.2358667,13.8478667 C10.1358667,13.8478667 6.34786667,11.6612 4.29786667,8.11053333" id="Fill-16" fill="url(#linearGradient-2)"></path>
                <path d="M67.8476,0.666533333 L52.4576,27.3232 C50.4069333,30.8738667 46.6189333,33.0612 42.5196,33.0612 L33.9236,33.0612 L49.3142667,6.40386667 C51.3636,2.85386667 55.1522667,0.666533333 59.2516,0.666533333 L67.8476,0.666533333 Z" id="Fill-19" fill="url(#linearGradient-3)"></path>

    </g>
</svg>