<?xml version="1.0" encoding="UTF-8"?>
<svg width="40px" height="40px" viewBox="0 0 40 40" version="1.1" xmlns="http://www.w3.org/2000/svg" xmlns:xlink="http://www.w3.org/1999/xlink">
    <title>ICO/social/FB@1x</title>
    <g id="Mockup" stroke="none" stroke-width="1" fill="none" fill-rule="evenodd">
        <g id="Desktop-HD" transform="translate(-1118.000000, -4715.000000)" fill="#FFFFFF">
            <g id="FOOTER" transform="translate(0.000000, 4508.000000)">
                <g id="Fill-1" transform="translate(1118.000000, 207.000000)">
                    <path d="M40,20 C40,8.953125 31.046875,0 20,0 C8.953125,0 0,8.953125 0,20 C0,31.046875 8.953125,40 20,40 C20.1171875,40 20.234375,40 20.3515625,39.9921875 L20.3515625,24.4296875 L16.0546875,24.4296875 L16.0546875,19.421875 L20.3515625,19.421875 L20.3515625,15.734375 C20.3515625,11.4609375 22.9609375,9.1328125 26.7734375,9.1328125 C28.6015625,9.1328125 30.171875,9.265625 30.625,9.328125 L30.625,13.796875 L28,13.796875 C25.9296875,13.796875 25.5234375,14.78125 25.5234375,16.2265625 L25.5234375,19.4140625 L30.484375,19.4140625 L29.8359375,24.421875 L25.5234375,24.421875 L25.5234375,39.2265625 C33.8828125,36.828125 40,29.1328125 40,20"></path>
                </g>
            </g>
        </g>
    </g>
</svg>