<?xml version="1.0" encoding="UTF-8"?>
<svg width="40px" height="40px" viewBox="0 0 40 40" version="1.1" xmlns="http://www.w3.org/2000/svg" xmlns:xlink="http://www.w3.org/1999/xlink">
    <title>ICO/social/IG@1x</title>
    <defs>
        <polygon id="path-1a" points="2.34375e-05 3.90625e-05 40 3.90625e-05 40 40 2.34375e-05 40"></polygon>
    </defs>
    <g id="Mockup" stroke="none" stroke-width="1" fill="none" fill-rule="evenodd">
        <g id="Desktop-HD" transform="translate(-1230.000000, -4715.000000)">
            <g id="FOOTER" transform="translate(0.000000, 4508.000000)">
                <g id="Group-4" transform="translate(1118.000000, 207.000000)">
                    <g id="Group-8" transform="translate(112.000000, 0.000000)">
                        <path d="M23.828125,20 C23.828125,22.1142187 22.1142969,23.828125 20,23.828125 C17.8857031,23.828125 16.171875,22.1142187 16.171875,20 C16.171875,17.8857813 17.8857031,16.171875 20,16.171875 C22.1142969,16.171875 23.828125,17.8857813 23.828125,20" id="Fill-1" fill="#FFFFFF"></path>
                        <path d="M26.1303672,15.2478047 C25.3692734,15.2478047 24.7521641,14.6307734 24.7521641,13.8696016 C24.7521641,13.1085078 25.3692734,12.4914766 26.1303672,12.4914766 C26.8914609,12.4914766 27.5085703,13.1085078 27.5085703,13.8696016 C27.5082578,14.6307734 26.8914609,15.2478047 26.1303672,15.2478047 M19.9999766,25.8971797 C16.7428672,25.8971797 14.1024766,23.2571797 14.1024766,19.9999922 C14.1024766,16.7428828 16.7428672,14.1028047 19.9999766,14.1028047 C23.2568516,14.1028047 25.8972422,16.7428828 25.8972422,19.9999922 C25.8972422,23.2571797 23.2568516,25.8971797 19.9999766,25.8971797 M28.9526328,13.2269453 C28.7686484,12.7282734 28.4750547,12.2769453 28.0935703,11.9063984 C27.7231016,11.5249922 27.2720078,11.2313984 26.7731016,11.0473359 C26.3684141,10.8902266 25.7605234,10.7031172 24.6408359,10.6521797 C23.4295859,10.5969453 23.0663828,10.5849922 19.9999766,10.5849922 C16.9332578,10.5849922 16.5701328,10.5966328 15.3591953,10.6518672 C14.2395078,10.7031172 13.6313047,10.8902266 13.2269297,11.0473359 C12.7279453,11.2313984 12.2766172,11.5249922 11.9064609,11.9063984 C11.5249766,12.2769453 11.2313828,12.7279609 11.0470859,13.2269453 C10.8898984,13.6316328 10.7027891,14.2398359 10.6518516,15.3595234 C10.5966172,16.5704609 10.5847422,16.9335859 10.5847422,20.0003047 C10.5847422,23.0667109 10.5966172,23.4298359 10.6518516,24.6410859 C10.7027891,25.7607734 10.8898984,26.3687422 11.0470859,26.7733516 C11.2313828,27.2723359 11.5246641,27.7233516 11.9061484,28.0938984 C12.2766172,28.4753047 12.7276328,28.7688984 13.2266172,28.9529609 C13.6313047,29.1103828 14.2395078,29.2974922 15.3591953,29.3484297 C16.5701328,29.4036641 16.9329453,29.4153047 19.9996641,29.4153047 C23.0666953,29.4153047 23.4298984,29.4036641 24.6405234,29.3484297 C25.7602109,29.2974922 26.3684141,29.1103828 26.7731016,28.9529609 C27.7746641,28.5665547 28.5663047,27.7749922 28.9526328,26.7733516 C29.1098203,26.3687422 29.2968516,25.7607734 29.3481797,24.6410859 C29.4034141,23.4298359 29.4149766,23.0667109 29.4149766,20.0003047 C29.4149766,16.9335859 29.4034141,16.5704609 29.3481797,15.3595234 C29.2971641,14.2398359 29.1101328,13.6316328 28.9526328,13.2269453" id="Fill-3" fill="#FFFFFF"></path>
                        <g id="Group-7">
                            <mask id="mask-2a" fill="white">
                                <use xlink:href="#path-1a"></use>
                            </mask>
                            <path id="Fill-5" fill="#FFFFFF" mask="url(#mask-2a)"  d="M31.4151016,24.7348047 C31.3595547,25.9573047 31.1651797,26.7919922 30.8813516,27.5226172 C30.2847109,29.0652734 29.0652578,30.2847266 27.5226016,30.8813672 C26.7922891,31.1651953 25.9573672,31.3592578 24.7351016,31.4151172 C23.5104141,31.4709766 23.1191641,31.4844141 20.0003359,31.4844141 C16.8811172,31.4844141 16.4901797,31.4709766 15.2651797,31.4151172 C14.0429922,31.3592578 13.2079922,31.1651953 12.4777578,30.8813672 C11.7111172,30.5929297 11.0171328,30.1409766 10.4434609,29.5566016 C9.85932031,28.9831641 9.40736719,28.2888672 9.11892969,27.5226172 C8.83517969,26.7923047 8.64072656,25.9573047 8.58517969,24.7351172 C8.52877344,23.5101172 8.51564844,23.1188672 8.51564844,20.0000391 C8.51564844,16.8811328 8.52877344,16.4898828 8.58486719,15.2651953 C8.64041406,14.0426953 8.83455469,13.2080078 9.11838281,12.4773828 C9.40674219,11.7111328 9.85900781,11.0168359 10.4434609,10.4433984 C11.0168203,9.85902344 11.7111172,9.40707031 12.4774453,9.11863281 C13.2079922,8.83480469 14.0426797,8.64074219 15.2651797,8.58488281 C16.4898672,8.52902344 16.8811172,8.51566406 20.0000234,8.51566406 C23.1189297,8.51566406 23.5101016,8.52902344 24.7347891,8.58519531 C25.9573672,8.64074219 26.7919766,8.83480469 27.5226016,9.11832031 C28.2888516,9.40675781 28.9831484,9.85902344 29.5568984,10.4433984 C30.1409609,11.0171484 30.5932266,11.7111328 30.8813516,12.4773828 C31.1654922,13.2080078 31.3595547,14.0426953 31.4154141,15.2651953 C31.4712734,16.4898828 31.4843984,16.8811328 31.4843984,20.0000391 C31.4843984,23.1188672 31.4712734,23.5101172 31.4151016,24.7348047 M20.0000234,3.90625e-05 C8.95596094,3.90625e-05 2.34375e-05,8.95597656 2.34375e-05,20.0000391 C2.34375e-05,31.0440234 8.95596094,40.0000391 20.0000234,40.0000391 C31.0440078,40.0000391 40.0000234,31.0440234 40.0000234,20.0000391 C40.0000234,8.95597656 31.0440078,3.90625e-05 20.0000234,3.90625e-05" ></path>
                        </g>
                    </g>
                </g>
            </g>
        </g>
    </g>
</svg>