<?xml version="1.0" encoding="UTF-8"?>
<svg width="40px" height="40px" viewBox="0 0 40 40" version="1.1" xmlns="http://www.w3.org/2000/svg" xmlns:xlink="http://www.w3.org/1999/xlink">
    <title>ICO/social/LI@1x</title>
    <defs>
        <polygon id="path-1l" points="0 0 39.9999922 0 39.9999922 40 0 40"></polygon>
    </defs>
    <g id="Mockup" stroke="none" stroke-width="1" fill="none" fill-rule="evenodd">
        <g id="Desktop-HD" transform="translate(-1286.000000, -4715.000000)">
            <g id="FOOTER" transform="translate(0.000000, 4508.000000)">
                <g id="Group-4" transform="translate(1118.000000, 207.000000)">
                    <g id="Group-3" transform="translate(168.000000, 0.000000)">
                        <mask id="mask-2l" fill="white">
                            <use xlink:href="#path-1l"></use>
                        </mask>
                        <g id="Clip-2"></g>
                        <path d="M31.7517109,30.234375 L26.8813984,30.234375 L26.8813984,22.3946875 C26.8813984,20.4245312 26.1761641,19.0807813 24.4137422,19.0807813 C23.0682734,19.0807813 22.2668672,19.9871875 21.9146797,20.8621094 C21.7858516,21.1752344 21.7544453,21.6128906 21.7544453,22.0507812 L21.7544453,30.234375 L16.8838203,30.234375 C16.8838203,30.234375 16.9476484,16.9549219 16.8838203,15.5801562 L21.7544453,15.5801562 L21.7544453,17.655 C22.4017109,16.6564844 23.5599141,15.2361719 26.1441328,15.2361719 C29.3487422,15.2361719 31.7517109,17.330625 31.7517109,21.8316406 L31.7517109,30.234375 Z M11.7529609,13.5791406 L11.7211641,13.5791406 C10.0867109,13.5791406 9.02952344,12.4539062 9.02952344,11.0476562 C9.02952344,9.6096875 10.1190547,8.515625 11.7853047,8.515625 C13.4515547,8.515625 14.4769453,9.6096875 14.5086641,11.0476562 C14.5086641,12.4539062 13.4515547,13.5791406 11.7529609,13.5791406 L11.7529609,13.5791406 Z M9.31733594,30.234375 L14.1882734,30.234375 L14.1882734,15.5801563 L9.31733594,15.5801563 L9.31733594,30.234375 Z M19.9999922,0 C8.95600781,0 -7.8125e-06,8.95601562 -7.8125e-06,20 C-7.8125e-06,31.0439844 8.95600781,40 19.9999922,40 C31.0439766,40 39.9999922,31.0439844 39.9999922,20 C39.9999922,8.95601562 31.0439766,0 19.9999922,0 L19.9999922,0 Z" id="Fill-1" fill="#FFFFFF" mask="url(#mask-2l)"></path>
                    </g>
                </g>
            </g>
        </g>
    </g>
</svg>