<?xml version="1.0" encoding="UTF-8"?>
<svg width="40px" height="40px" viewBox="0 0 40 40" version="1.1" xmlns="http://www.w3.org/2000/svg" xmlns:xlink="http://www.w3.org/1999/xlink">
    <title>ICO/social/TW@1x</title>
    <defs>
        <polygon id="path-1t" points="0 0 39.9999766 0 39.9999766 39.9999688 0 39.9999688"></polygon>
    </defs>
    <g id="Mockup" stroke="none" stroke-width="1" fill="none" fill-rule="evenodd">
        <g id="Desktop-HD" transform="translate(-1174.000000, -4715.000000)" fill="#FFFFFF">
            <g id="FOOTER" transform="translate(0.000000, 4508.000000)">
                <g id="Group-4" transform="translate(1118.000000, 207.000000)">
                    <g id="Group-3" transform="translate(56.000000, 0.000000)">
                        <mask id="mask-2t" fill="white">
                            <use xlink:href="#path-1t"></use>
                        </mask>
                        <g id="Clip-2">
                        
                        </g>
                        <path d="M29.1317734,15.593875 C29.1406016,15.79075 29.1448984,15.9884844 29.1448984,16.1871563 C29.1448984,22.2530937 24.5275547,29.2480156 16.0836484,29.2483281 L16.0839609,29.2483281 L16.0836484,29.2483281 C13.4912266,29.2483281 11.0788047,28.4884844 9.04724219,27.1862969 C9.40646094,27.2287188 9.77200781,27.2497344 10.1422422,27.2497344 C12.2931016,27.2497344 14.2724766,26.5161406 15.8438047,25.2847344 C13.8341953,25.2474688 12.1398984,23.9202812 11.5552109,22.0962187 C11.8350547,22.1499687 12.1227891,22.1792656 12.4179453,22.1792656 C12.8369297,22.1792656 13.2427891,22.1227813 13.6285703,22.0175469 C11.5280234,21.597 9.94567969,19.7405937 9.94567969,17.5177031 C9.94567969,17.4969219 9.94567969,17.4783281 9.94630469,17.4591094 C10.5648984,17.8030156 11.2722422,18.0099687 12.0254453,18.0331719 C10.7928672,17.2106719 9.98263281,15.8047344 9.98263281,14.2120781 C9.98263281,13.3709844 10.2099766,12.5830156 10.6042734,11.9045781 C12.8680234,14.6823125 16.2512266,16.5091094 20.0665391,16.7010625 C19.9877891,16.3647344 19.9471641,16.0144219 19.9471641,15.6542656 C19.9471641,13.120125 22.0031797,11.0641875 24.5382578,11.0641875 C25.8587266,11.0641875 27.0513828,11.6223125 27.8891172,12.5146563 C28.9348984,12.3083281 29.9170078,11.9262969 30.8041172,11.4004375 C30.4608359,12.4719219 29.7332578,13.3709844 28.7853672,13.9395 C29.7140391,13.8284062 30.5990391,13.5821563 31.4215391,13.2165312 C30.8071641,14.1372344 30.0281016,14.9459844 29.1317734,15.593875 M19.9999766,-3.125e-05 C8.95599219,-3.125e-05 -2.34375e-05,8.95598437 -2.34375e-05,19.9999688 C-2.34375e-05,31.0440312 8.95599219,39.9999688 19.9999766,39.9999688 C31.0440391,39.9999688 39.9999766,31.0440312 39.9999766,19.9999688 C39.9999766,8.95598437 31.0440391,-3.125e-05 19.9999766,-3.125e-05" id="Fill-1" fill="#FFFFFF" mask="url(#mask-2t)"></path>
                    </g>
                </g>
            </g>
        </g>
    </g>
</svg>