<?xml version="1.0" encoding="UTF-8"?>
<svg width="40px" height="40px" viewBox="0 0 40 40" version="1.1" xmlns="http://www.w3.org/2000/svg" xmlns:xlink="http://www.w3.org/1999/xlink">
    <title>ICO/social/YT@1x</title>
    <defs>
        <polygon id="path-1y" points="0 0 39.9999922 0 39.9999922 39.9999766 0 39.9999766"></polygon>
    </defs>
    <g id="Mockup" stroke="none" stroke-width="1" fill="none" fill-rule="evenodd">
        <g id="Desktop-HD" transform="translate(-1342.000000, -4715.000000)">
            <g id="FOOTER" transform="translate(0.000000, 4508.000000)">
                <g id="Group-4" transform="translate(1118.000000, 207.000000)">
                    <g id="Group-5" transform="translate(224.000000, 0.000000)">
                        <polygon id="Fill-1" fill="#FFFFFF" points="17.5088516 23.7469453 24.0145547 19.9999922 17.5088516 16.2530391"></polygon>
                        <g id="Group-4">
                            <mask id="mask-2y" fill="white">
                                <use xlink:href="#path-1y"></use>
                            </mask>
                            <path id="Fill-2" fill="#FFFFFF" mask="url(#mask-2y)" d="M32.4970532,20.0204453 C32.4970532,20.0204453 32.4970532,24.0765391 31.9824141,26.0323984 C31.6940547,27.1029453 30.8499141,27.9470859 29.7793672,28.2351328 C27.8235078,28.7499766 19.9999922,28.7499766 19.9999922,28.7499766 C19.9999922,28.7499766 12.1969453,28.7499766 10.2206172,28.2147422 C9.15007031,27.9266172 8.30592969,27.0822422 8.01757031,26.0116953 C7.50272656,24.0765391 7.50272656,19.9999766 7.50272656,19.9999766 C7.50272656,19.9999766 7.50272656,15.9441953 8.01757031,13.9883359 C8.30569531,12.9177891 9.17053906,12.0529453 10.2206172,11.7648203 C12.1764766,11.2499766 19.9999922,11.2499766 19.9999922,11.2499766 C19.9999922,11.2499766 27.8235078,11.2499766 29.7793672,11.7852891 C30.8499141,12.0733359 31.6940547,12.9177891 31.9824141,13.9883359 C32.5177266,15.9441953 32.4970532,20.0204453 32.4970532,20.0204453 M19.9999922,-2.34375e-05 C8.95600781,-2.34375e-05 -7.8125e-06,8.95599219 -7.8125e-06,19.9999766 C-7.8125e-06,31.0440391 8.95600781,39.9999766 19.9999922,39.9999766 C31.0439766,39.9999766 39.9999922,31.0440391 39.9999922,19.9999766 C39.9999922,8.95599219 31.0439766,-2.34375e-05 19.9999922,-2.34375e-05" ></path>
                        </g>
                    </g>
                </g>
            </g>
        </g>
    </g>
</svg>